<?xml version="1.0" encoding="utf-8"?>
<!-- Generator: Adobe Illustrator 24.2.0, SVG Export Plug-In . SVG Version: 6.00 Build 0)  -->
<svg version="1.1" id="Layer_1" xmlns="http://www.w3.org/2000/svg" xmlns:xlink="http://www.w3.org/1999/xlink" x="0px" y="0px"
	 viewBox="0 0 512 512" style="enable-background:new 0 0 512 512;" xml:space="preserve">
<style type="text/css">
	.st0{fill:#FFFFFF;}
</style>
<g>
	<path class="st0" d="M9.4,233.4L122.8,120c6.2-6.2,14.4-9.4,22.6-9.4s16.4,3.1,22.6,9.4c12.5,12.5,12.5,32.8,0,45.3L109.3,224H480
		c17.7,0,32,14.3,32,32s-14.3,32-32,32H109.3l58.8,58.8c12.5,12.5,12.5,32.8,0,45.3c-12.5,12.5-32.8,12.5-45.3,0L9.4,278.6
		C-3.1,266.1-3.1,245.9,9.4,233.4L9.4,233.4z"/>
</g>
</svg>
