<svg xmlns="http://www.w3.org/2000/svg" xmlns:xlink="http://www.w3.org/1999/xlink" viewBox="0 0 564.7 500"><defs><style>.cls-1{fill:#3a4040;}.cls-2{fill:none;}.cls-3{isolation:isolate;}.cls-4{fill:#f8f8f8;}.cls-5{fill:#ccc;opacity:0.54;}.cls-15,.cls-21,.cls-23,.cls-5,.cls-7{mix-blend-mode:multiply;}.cls-6{fill:#d6d6d6;}.cls-7{fill:#c7c7c7;}.cls-8{fill:#f2f2f2;}.cls-9{fill:#242424;}.cls-10{clip-path:url(#clip-path);}.cls-11{opacity:0.06;}.cls-12{fill:#fff;}.cls-13{fill:gray;opacity:0.46;}.cls-14{clip-path:url(#clip-path-2);}.cls-15{fill:#5d5d5d;opacity:0.38;}.cls-16{fill:red;}.cls-17{fill:#f5f5eb;}.cls-18{fill:#d4d4d9;}.cls-19{fill:#fefeff;}.cls-20{fill:#fc0;}.cls-21{fill:#301300;opacity:0.85;}.cls-22{clip-path:url(#clip-path-3);}.cls-23{fill:#e70013;opacity:0.1;}.cls-24{fill:#e8e8e8;}.cls-25{fill:#707070;}</style><clipPath id="clip-path" transform="translate(0)"><rect class="cls-1" x="134.5" y="141.4" width="295.6" height="180.75"/></clipPath><clipPath id="clip-path-2" transform="translate(0)"><rect class="cls-2" x="131.9" y="99.7" width="315.7" height="231.87"/></clipPath><clipPath id="clip-path-3" transform="translate(0)"><path class="cls-2" d="M279.2,178.9v18.2a28.9,28.9,0,0,1-28.9,28.8h0a28.8,28.8,0,0,1-28.8-28.8V178.9a2.2,2.2,0,0,1,2.2-2.3h1.1V159.1a25.5,25.5,0,1,1,51,.9v4.8H267v-5.7a16.7,16.7,0,1,0-33.4,0v17.5h43.3A2.3,2.3,0,0,1,279.2,178.9ZM267,169.6h8.8V167H267Z"/></clipPath></defs><g class="cls-3"><g id="Layer_1" data-name="Layer 1"><rect class="cls-4" width="564.7" height="500"/></g><g id="Layer_5" data-name="Layer 5"><path class="cls-5" d="M440.2,386.2c0-3.3-69.5-6.1-155.2-6.1s-155.3,2.8-155.3,6.1,69.5,6.2,155.3,6.2S440.2,389.6,440.2,386.2Z" transform="translate(0)"/></g><g id="Layer_2" data-name="Layer 2"><polygon class="cls-6" points="321.4 333.5 243.3 333.5 237 378.3 327.7 378.3 321.4 333.5"/><polygon class="cls-7" points="321.4 333.5 243.3 333.5 240.6 356.6 324.1 356.6 321.4 333.5"/><path class="cls-8" d="M217.3,383.4h0a7.4,7.4,0,0,1,7.4-7.5H340a7.4,7.4,0,0,1,7.4,7.5H217.3Z" transform="translate(0)"/><rect class="cls-9" x="117.4" y="124.3" width="329.9" height="215" rx="7.3"/><rect class="cls-1" x="134.5" y="141.4" width="295.6" height="180.75"/><g class="cls-10"><g class="cls-11"><rect class="cls-12" x="219.1" y="52.7" width="101.7" height="336.61" transform="translate(182 -116.6) rotate(36.1)"/><rect class="cls-12" x="314.3" y="97.2" width="31" height="336.61" transform="translate(219.6 -143.3) rotate(36.1)"/></g></g><path class="cls-13" d="M285,132.5a2.7,2.7,0,0,1-5.3,0,2.7,2.7,0,0,1,5.3,0Z" transform="translate(0)"/><g class="cls-14"><path class="cls-15" d="M445.6,279.9H377.1l-52.3,22.9,12.5-22.9H181.9a12.1,12.1,0,0,1-12.1-12.1V137.6a12.1,12.1,0,0,1,12.1-12.1H445.6a12.2,12.2,0,0,1,12.2,12.1V267.8A12.2,12.2,0,0,1,445.6,279.9Z" transform="translate(0)"/></g><path class="cls-16" d="M464.3,260h-83l-56.5,42.8,7.6-42.8H200.5a12.1,12.1,0,0,1-12.1-12.1V117.8a12.2,12.2,0,0,1,12.1-12.2H464.3a12.2,12.2,0,0,1,12.1,12.2V247.9A12.1,12.1,0,0,1,464.3,260Z" transform="translate(0)"/><path class="cls-17" d="M485.6,99.7a2.4,2.4,0,0,1-1.6-4l8.5-8.6a2.3,2.3,0,0,1,3.3,3.3L487.3,99A2.8,2.8,0,0,1,485.6,99.7Z" transform="translate(0)"/><path class="cls-17" d="M502.5,111.7H491.9a2.3,2.3,0,1,1,0-4.6h10.6a2.3,2.3,0,1,1,0,4.6Z" transform="translate(0)"/><path class="cls-17" d="M473.5,93.4a2.4,2.4,0,0,1-2.3-2.4V80.5a2.4,2.4,0,1,1,4.7,0V91A2.4,2.4,0,0,1,473.5,93.4Z" transform="translate(0)"/><rect class="cls-18" x="268.8" y="164.7" width="5.3" height="2.61"/><rect class="cls-19" x="267" y="167" width="8.8" height="2.55"/><path class="cls-19" d="M267,164.8h8.8v-5.7a25.5,25.5,0,1,0-51,0V179h8.8V159.1a16.7,16.7,0,1,1,33.4,0Z" transform="translate(0)"/><path class="cls-20" d="M250.3,225.9h0a28.8,28.8,0,0,1-28.8-28.8V179.6a2.9,2.9,0,0,1,2.9-3h51.8a3,3,0,0,1,3,3v17.5A28.9,28.9,0,0,1,250.3,225.9Z" transform="translate(0)"/><path class="cls-21" d="M256.5,194.7a6.2,6.2,0,1,0-9.2,5.4v7.3a3.1,3.1,0,0,0,3,3,3,3,0,0,0,3-3v-7.3A6.3,6.3,0,0,0,256.5,194.7Z" transform="translate(0)"/><g class="cls-22"><rect class="cls-23" x="250.3" y="176.6" width="28.9" height="49.32"/></g><path class="cls-24" d="M417.1,210.4H328.3A25.1,25.1,0,0,1,303.4,185v-.5a25.1,25.1,0,0,1,24.9-25.4h88.8A25.1,25.1,0,0,1,442,184.5v.5A25.1,25.1,0,0,1,417.1,210.4Z" transform="translate(0)"/><path class="cls-12" d="M417.9,210.4h-86c-13.3,0-24-10.4-24-23.1v-.5c0-12.7,10.7-23.1,24-23.1h86c13.3,0,24.1,10.4,24.1,23.1v.5C442,200,431.2,210.4,417.9,210.4Z" transform="translate(0)"/><path class="cls-25" d="M334.3,172.8h6.1l-.9,8.9,7.4-5,2.9,5.5-7.9,3.5,7.9,3.5-2.9,5.4-7.4-5,.9,9h-6.1l.9-9-7.4,5-3-5.4,8-3.5-8-3.5,3-5.5,7.4,5Z" transform="translate(0)"/><path class="cls-25" d="M371.6,172.8h6.1l-.9,8.9,7.4-5,2.9,5.5-7.9,3.5,7.9,3.5-2.9,5.4-7.4-5,.9,9h-6.1l.9-9-7.4,5-3-5.4,8-3.5-8-3.5,3-5.5,7.4,5Z" transform="translate(0)"/><path class="cls-25" d="M408.9,172.8H415l-.9,8.9,7.4-5,2.9,5.5-7.9,3.5,7.9,3.5-2.9,5.4-7.4-5,.9,9h-6.1l.9-9-7.4,5-3-5.4,8-3.5-8-3.5,3-5.5,7.4,5Z" transform="translate(0)"/></g></g></svg>