<svg id="Calque_1" data-name="Calque 1" xmlns="http://www.w3.org/2000/svg" viewBox="0 0 240.7 291.4"><defs><style>.cls-1{fill:#fe0404;}.cls-2{fill:#fe0101;}.cls-3{fill:#060606;}.cls-4{fill:#070707;}</style></defs><path class="cls-1" d="M254,182.2H143.1c-3.7,0-7.1-.3-8.4-4.5s1.1-6.1,4-8.2l90-65.6c6.7-4.9,13.5-9.7,20.1-14.7,3.6-2.7,6.8-2.7,10.4,0l110.6,80.6c2.7,2,4.8,4.3,3.6,7.9s-4.3,4.5-7.9,4.5Z" transform="translate(-134.4 -87.2)"/><path class="cls-2" d="M254.8,296.5h-111c-6.1,0-9.4-3.1-8-8.4.5-2.1,3-3.9,4.9-5.5s1.9-.2,2.9-.2H366.5c4.2,0,7.3,1.2,8.2,5.6s-2,8.5-7.5,8.6H254.8Z" transform="translate(-134.4 -87.2)"/><path class="cls-1" d="M272.9,232.6v33.9c0,5.6-2.2,7.9-7.8,7.9s-11.7.1-17.5,0-7.5-2.4-7.5-7.3q-.2-34.7,0-69.3c0-4.6,2.6-7.1,7.2-7.2s12.3-.2,18.4,0,7.2,2.6,7.2,7.6C273,209.6,272.9,221.1,272.9,232.6Z" transform="translate(-134.4 -87.2)"/><path class="cls-1" d="M345.9,232.5v33.4c0,6.5-2.1,8.5-8.7,8.5s-10.6.1-16,0-8.1-2.3-8.1-7.7c-.1-22.8-.1-45.5,0-68.3,0-5.2,2.5-7.8,7.6-7.8s12-.2,17.9,0,7.3,2.5,7.3,7.5C346,209.5,345.9,221,345.9,232.5Z" transform="translate(-134.4 -87.2)"/><path class="cls-2" d="M198.2,232.9c0,11,.1,22,0,33,0,6.6-2,8.5-8.7,8.5s-11,.1-16.5,0-7.4-2.3-7.4-7.3c-.1-23-.1-45.9,0-68.9,0-5.3,2.4-7.6,7.6-7.6h16.5c6.3.1,8.5,2.3,8.5,8.4C198.3,210.2,198.2,221.6,198.2,232.9Z" transform="translate(-134.4 -87.2)"/><path class="cls-3" d="M248.7,343c9.8,5.3,12.8,10.8,11.1,19.9s-7.2,13-16.8,13.8-19.3.5-28.9.5c-4.2,0-6.4-2.5-6.4-6.7q-.1-25.5,0-51c0-4.8,2.8-6.9,7.3-6.9,8.2-.1,16.3-.2,24.5.1s15,4.6,17.1,11.4S256.5,337,248.7,343Zm-28,24.7c6.7-.4,12.8-.3,18.8-1.1s7.5-4,7.5-8.9-2.8-7.9-7.5-8.4-12.4-.7-18.8-1Zm0-28.1c6.3-.4,12.1-.5,17.7-1.3s6.1-4,6.1-7.9-2.2-6.7-6.2-7.1c-5.8-.5-11.7-.7-17.6-1Z" transform="translate(-134.4 -87.2)"/><path class="cls-4" d="M183.3,353.3c-3.4,0-6.9.1-10.3-.1s-6.6-.7-6.3-5.2,3-4.7,6.3-4.7h15.5c4.7,0,7,2.5,7.1,7.1s.6,9.1-.2,13.5c-.4,2.7-2.1,6.2-4.4,7.6a41.4,41.4,0,0,1-33.9,5.6c-14.1-3.7-22.3-16.2-22-32.9.5-24.6,21.5-39.1,44.7-30.9,5.8,2.2,10.5,5.6,13,11.6,1.6,3.6,1.3,7-2.6,8.9s-6.5.3-8.3-3c-4.8-8.7-12.1-10.2-19.9-8.4l-1.4.4c-9.5,3.3-14.1,14.8-11.7,29,1.7,10.4,8.9,16.5,19.3,16.3a42.6,42.6,0,0,0,5-.6C183.7,365.5,184.4,364.5,183.3,353.3Z" transform="translate(-134.4 -87.2)"/><path class="cls-3" d="M322.3,373.3c-1.3,1.3-2.8,4.1-4.8,4.5a7.5,7.5,0,0,1-6.6-2.4c-2.2-3-2.9-7-4.7-10.4-.8-1.4-2.6-3-4.1-3.1-6.4-.3-13-.3-19.4,0-1.5.1-3.3,1.7-4.1,3.1-1.7,3.2-2.3,7.1-4.3,10a8.3,8.3,0,0,1-6.4,3c-3.2-.4-5.1-3.1-4.6-6.6a16.4,16.4,0,0,1,1.3-4.3c6-15.8,12.1-31.7,18.2-47.5,1.6-4.2,3.7-7.8,9-8.1s7.5,1.8,9.1,5.7q10.4,25.9,20.5,51.9C321.7,370,321.8,371,322.3,373.3Zm-20.7-21.6-9.4-26c-3.3,9.4-6.1,17.6-9,26Z" transform="translate(-134.4 -87.2)"/><path class="cls-4" d="M344,322.9v16.3c6.8,0,13.6-.2,20.3.1,1.9.1,4.5.9,5.6,2.3,2.7,3.2.1,7.4-4.9,7.6-6.8.2-13.6,0-21.1,0,0,6.4,0,12.7-.1,18.9,0,2,.4,4.4-.5,5.9s-3.6,4.1-5.4,4.1-4.5-2.1-6.2-3.8-.7-3.2-.7-4.8c-.1-16-.1-32-.1-47.9.1-6.9,2-9,8.9-9.1,9.4-.1,18.7,0,28,0h2c3.2.3,5.4,1.8,5.3,5.4s-2.3,4.7-5.3,4.8H344Z" transform="translate(-134.4 -87.2)"/></svg>